<svg id="epCROxetwsM1" xmlns="http://www.w3.org/2000/svg" xmlns:xlink="http://www.w3.org/1999/xlink" viewBox="0 0 300 300" shape-rendering="geometricPrecision" text-rendering="geometricPrecision"><defs><linearGradient id="epCROxetwsM5-fill" x1="0.767488" y1="1.119023" x2="0.109366" y2="0.140791" spreadMethod="pad" gradientUnits="objectBoundingBox" gradientTransform="translate(0 0)"><stop id="epCROxetwsM5-fill-0" offset="0%" stop-color="#d47246"/><stop id="epCROxetwsM5-fill-1" offset="100%" stop-color="#f9a68d"/></linearGradient></defs><g transform="matrix(1.598757 0 0 1.027494-93.258491-5.614142)"><g transform="matrix(.567433 0 0 1 11.463131 5)"><polygon points="0,-17.312744 14.993276,-8.656372 14.993276,8.656372 -14.993276,8.656372 -14.993276,-8.656372 0,-17.312744" transform="translate(26.50024 285.483437)" fill="#787878" stroke-width="0"/><path d="M36.676416,280.133505c0,0-5.608129,0-5.608129,0l-4.568048-11.962812c0,0,10.176177,11.962812,10.176177,11.962812Z" transform="translate(.000001 0)" fill="url(#epCROxetwsM5-fill)" stroke-width="0.6"/></g><path d="" fill="none" stroke="#3f5787" stroke-width="0.6"/><path d="M26.50024,273.170693q-15.181373-2.218247-8.055614-10.136215c7.125759-7.917968,73.334551-15.556686,104.070424-34.991167s-9.89671-20.394257-15.520652-37.607734s9.091765-43.588194,57.031098-55.516179q47.939333-11.927985,135.974495-25.66877v59.694816c-37.582957-.31348-55.026513-17.691828-98.687784-4.178638s-32.783904,38.195363-9.55117,34.026046s28.035948,5.595127,0,29.250459-135.274252,30.932965-150.267528,34.991167Q26.500233,267.09268,26.50024,273.170693Z" transform="translate(.000009 0.000001)" fill="#787878" stroke-width="0.6"/></g></svg>
